<?xml version="1.0" encoding="UTF-8"?>
<svg viewBox="0 0 313.7731 347.91791" xmlns="http://www.w3.org/2000/svg">
 <g transform="translate(-259.6 -358.16)">
  <path d="m548.27 703.58v-251.59h-286.09v251.59h286.09zm0.03472-251.52 22.523-90.284 0.05157 206.43-22.635 135.32m22.635-341.82h-270.04l-38.738 89.877 286.21 0.48625" fill="#ae8858" fill-rule="evenodd" stroke="#ba925b" stroke-linecap="round" stroke-linejoin="round" stroke-width="5"/>
  <path d="m404.67 453.93 26.62-94.269" fill="none" stroke="#9c7a4d" stroke-width="3"/>
  <path d="m265.68 453.49 279.09 0.08343" fill="none" stroke="#9c7a4d" stroke-linecap="square" stroke-linejoin="bevel" stroke-width="2"/>
  <path d="m381.36 452.57-0.08592 30.93 4.9832-3.9522 4.9832 3.9522 4.8973-3.7803 5.155 3.6944 5.0691-3.8662 4.8113 3.9522 5.0691-3.8662 4.9832 3.8662 5.0691-3.7803 4.9832 3.9522-0.08592-31.102 0.10142-0.0155 18.004-93.306-34.758-0.08592-33.179 93.407z" fill="#bc956c" fill-rule="evenodd" opacity=".7"/>
  <path d="m545.54 613.4c0-83.863 0.13049-74.946 0.13049-158.81l-280.89 1e-5v159.7c104.9-71.082 180.2-68.22 280.76-0.89481zm5.1671-160.94c7.5078-30.095 10.172-39.789 17.68-69.884-8.6142 79.532-10.047 190.21-17.541 235.01m-4.731-168.18c6.3199-24.859 10.078-39.45 17.803-70.482-5.655 3.9584-15.825 8.0092-28.356 11.851s-27.382 7.6842-42.523 10.595c-30.811 5.8939-43.007 21.393-53.772 27.38-8.7159 4.8475-22.769 6.9314-30.082 6.8015-7.3906 0.08622-15.927-6.3288-22.098-10.071-8.6001-5.2146-3.4458-16.045-33.926-23.739-12.007-3.0309-23.678-6.7235-33.579-10.739s-18.022-8.3971-22.896-12.931c-9.632 21.722-18.183 42.227-30.459 71.014" fill="#fff" fill-rule="evenodd" opacity=".05"/>
 </g>
</svg>
